<svg xmlns="http://www.w3.org/2000/svg" xmlns:xlink="http://www.w3.org/1999/xlink" version="1.1" x="0px" y="0px" viewBox="0 0 60 75" style="enable-background:new 0 0 60 60;" xml:space="preserve">
<path d="M16.77,32.42h-1.64c1.03,6.37,6.08,11.42,12.44,12.44v-1.64C22.1,42.23,17.77,37.9,16.77,32.42z" fill='#454acd'/>
<path d="M43.22,27.58h1.64c-1.03-6.37-6.07-11.42-12.43-12.44v1.64C37.9,17.77,42.22,22.1,43.22,27.58z" fill='#454acd'/>
<path d="M32.42,43.23v1.64c6.37-1.03,11.41-6.08,12.43-12.44h-1.64C42.22,37.9,37.9,42.23,32.42,43.23z" fill='#454acd'/>
<path d="M27.58,16.77v-1.64c-6.37,1.03-11.42,6.08-12.44,12.44h1.64C17.77,22.1,22.1,17.77,27.58,16.77z" fill='#454acd'/>
<path d="M30,37.62c-0.44,0-0.81,0.36-0.81,0.81v10.96c0,0.44,0.36,0.81,0.81,0.81s0.81-0.36,0.81-0.81V38.43  C30.81,37.97,30.44,37.62,30,37.62z" fill='#454acd'/>
<path d="M22.38,30c0-0.44-0.36-0.81-0.81-0.81H10.61c-0.44,0-0.81,0.36-0.81,0.81c0,0.44,0.36,0.81,0.81,0.81h10.96  C22.02,30.81,22.38,30.44,22.38,30z" fill='#454acd'/>
<path d="M30.81,21.57V10.61c0-0.44-0.36-0.81-0.81-0.81s-0.81,0.36-0.81,0.81v10.96c0,0.45,0.36,0.81,0.81,0.81  S30.81,22.03,30.81,21.57z" fill='#454acd'/>
<path d="M49.39,29.19H38.42c-0.44,0-0.81,0.36-0.81,0.81c0,0.44,0.36,0.81,0.81,0.81h10.97c0.44,0,0.81-0.36,0.81-0.81  C50.2,29.56,49.84,29.19,49.39,29.19z" fill='#454acd'/>
<circle cx="30" cy="30" r="5.32" fill='#454acd'/></svg>